<svg width="28" height="28" viewBox="0 0 28 28" fill="none" xmlns="http://www.w3.org/2000/svg">
<g id="Cart Icon">
<path id="Vector" d="M19.4545 20.5444C20.0332 20.5444 20.5882 20.7743 20.9973 21.1834C21.4065 21.5926 21.6364 22.1476 21.6364 22.7262C21.6364 23.3049 21.4065 23.8598 20.9973 24.269C20.5882 24.6782 20.0332 24.908 19.4545 24.908C18.8759 24.908 18.3209 24.6782 17.9118 24.269C17.5026 23.8598 17.2727 23.3049 17.2727 22.7262C17.2727 21.5153 18.2436 20.5444 19.4545 20.5444ZM2 3.08984H5.56727L6.59273 5.27166H22.7273C23.0166 5.27166 23.2941 5.3866 23.4987 5.59118C23.7032 5.79577 23.8182 6.07324 23.8182 6.36257C23.8182 6.54803 23.7636 6.73348 23.6873 6.90803L19.7818 13.9662C19.4109 14.6317 18.6909 15.0898 17.8727 15.0898H9.74545L8.76364 16.868L8.73091 16.9989C8.73091 17.0713 8.75964 17.1406 8.81079 17.1918C8.86193 17.2429 8.9313 17.2717 9.00364 17.2717H21.6364V19.4535H8.54545C7.9668 19.4535 7.41185 19.2236 7.00268 18.8144C6.59351 18.4053 6.36364 17.8503 6.36364 17.2717C6.36364 16.8898 6.46182 16.5298 6.62545 16.2244L8.10909 13.5517L4.18182 5.27166H2V3.08984ZM8.54545 20.5444C9.12411 20.5444 9.67906 20.7743 10.0882 21.1834C10.4974 21.5926 10.7273 22.1476 10.7273 22.7262C10.7273 23.3049 10.4974 23.8598 10.0882 24.269C9.67906 24.6782 9.12411 24.908 8.54545 24.908C7.9668 24.908 7.41185 24.6782 7.00268 24.269C6.59351 23.8598 6.36364 23.3049 6.36364 22.7262C6.36364 21.5153 7.33455 20.5444 8.54545 20.5444ZM18.3636 12.908L21.3964 7.45348H7.60727L10.1818 12.908H18.3636Z" fill="#966AC3"/>
</g>
</svg>
